<?xml version="1.0" encoding="utf-8"?><svg version="1.1" id="Layer_1" xmlns="http://www.w3.org/2000/svg" xmlns:xlink="http://www.w3.org/1999/xlink" x="0px" y="0px" viewBox="0 0 61.47 122.88" style="enable-background:new 0 0 61.47 122.88" xml:space="preserve"><style type="text/css">.st0{fill-rule:evenodd;clip-rule:evenodd;}</style><g><path class="st0" d="M61.47,94.05c0,7.95-3.02,14.74-9.05,20.38c-6,5.64-13.25,8.45-21.73,8.45c-8.48,0-15.71-2.82-21.7-8.45 C3.02,108.8,0,102,0,94.05c0-9.15,3.81-16.57,11.37-22.33l0-52.6c0-5.3,1.92-9.81,5.73-13.55C20.91,1.86,25.51,0,30.88,0 c5.3,0,9.84,1.89,13.59,5.63c3.74,3.75,5.63,8.29,5.63,13.59v52.5C57.69,77.48,61.47,84.91,61.47,94.05L61.47,94.05z M46.42,93.06 c0-4.64-1.96-8.48-5.83-11.43l0-62.9c0-2.72-0.96-5.04-2.85-6.99c-1.92-1.92-4.24-2.88-6.96-2.88c-2.72,0-5.07,0.93-7.02,2.85 c-1.99,1.92-2.98,4.21-2.98,6.93v63c-3.88,2.92-5.8,6.73-5.8,11.43c0,4.08,1.52,7.56,4.61,10.41c3.05,2.85,6.76,4.27,11.1,4.27 c4.34,0,8.05-1.43,11.13-4.27C44.87,100.61,46.42,97.13,46.42,93.06L46.42,93.06L46.42,93.06z M37.67,46.92v37.89 c2.98,2.29,4.47,5.04,4.47,8.25c0,2.98-1.13,5.54-3.35,7.62c-2.25,2.12-4.94,3.18-8.12,3.18c-3.18,0-5.86-1.06-8.08-3.18 c-2.25-2.09-3.38-4.64-3.38-7.62c0-3.21,1.53-5.96,4.57-8.25l0-37.89L37.67,46.92L37.67,46.92L37.67,46.92z"/></g></svg>