<?xml version="1.0" encoding="utf-8"?><svg version="1.1" id="Layer_1" xmlns="http://www.w3.org/2000/svg" xmlns:xlink="http://www.w3.org/1999/xlink" x="0px" y="0px" viewBox="0 0 122.88 93.95" style="enable-background:new 0 0 122.88 93.95" xml:space="preserve"><g><path d="M70.71,53.66c-0.62,0.3-1.23,0.63-1.85,0.99c-1.85,1.08-3.66,2.4-5.52,3.92l-3.96-4.54c1.37-1.27,2.85-2.43,4.42-3.45 c1.26-0.82,2.57-1.55,3.91-2.17c0.54-0.27,1.08-0.52,1.63-0.76c-2.61-4.63-6.37-7.95-10.63-9.99c-4.26-2.04-9.03-2.83-13.67-2.38 c-4.61,0.45-9.09,2.12-12.79,4.99c-4.28,3.32-7.54,8.28-8.78,14.86l-0.39,2.06l-2.05,0.36c-2.01,0.35-3.8,0.83-5.37,1.45 c-1.52,0.59-2.88,1.32-4.07,2.18c-0.95,0.69-1.77,1.46-2.47,2.29c-2.16,2.58-3.15,5.82-3.13,9.09c0.02,3.32,1.11,6.68,3.11,9.45 c0.74,1.02,1.61,1.96,2.59,2.78c1,0.83,2.12,1.51,3.38,2.03c1.25,0.52,2.64,0.89,4.17,1.1h59.41c2.89-0.7,5.45-1.64,7.61-2.85 c2.15-1.21,3.91-2.67,5.23-4.43c2.05-2.72,3.05-6.58,3.1-10.54c0.05-4.15-0.96-8.32-2.94-11.35c-0.57-0.87-1.18-1.66-1.84-2.37 c-2.96-3.18-6.71-4.57-10.6-4.6C76.4,51.75,73.49,52.43,70.71,53.66L70.71,53.66z M62.46,32.1c0,0.23-0.03,0.45-0.1,0.66 c5.31,2.8,9.92,7.22,12.98,13.3c1.31-0.2,2.62-0.31,3.92-0.3c5.5,0.04,10.81,2.01,14.99,6.51c0.88,0.94,1.71,2.01,2.48,3.19 c0.81,1.25,1.5,2.62,2.06,4.08c4.43-1.26,8.42-3.56,11.69-6.62c2.19-2.05,4.06-4.45,5.52-7.1c-0.78,0.35-1.58,0.67-2.4,0.95 c-2.96,1.02-6.14,1.57-9.44,1.57c-8.03,0-15.3-3.26-20.57-8.52c-5.26-5.26-8.52-12.54-8.52-20.57c0-3.43,0.6-6.72,1.69-9.78 c0.33-0.93,0.71-1.83,1.13-2.72c-3.69,1.91-6.9,4.6-9.44,7.86C64.69,19.44,62.46,25.51,62.46,32.1L62.46,32.1z M57.96,30.86 c0.26-7.16,2.8-13.73,6.92-19.03C69.32,6.12,75.61,1.9,82.85,0.07c1.21-0.3,2.44,0.43,2.74,1.64c0.19,0.77-0.04,1.55-0.54,2.09 c-1.72,2.12-3.09,4.54-4.04,7.19c-0.92,2.58-1.42,5.36-1.42,8.26c0,6.78,2.75,12.92,7.19,17.37c4.44,4.44,10.59,7.19,17.37,7.19 c2.8,0,5.48-0.47,7.98-1.32c2.61-0.89,5-2.2,7.11-3.85c0.98-0.77,2.4-0.59,3.16,0.39c0.46,0.59,0.58,1.33,0.39,2l0,0 c-1.65,5.89-4.89,11.12-9.23,15.18c-3.78,3.54-8.4,6.21-13.53,7.67c0.41,2.04,0.61,4.16,0.59,6.26c-0.06,5.17-1.45,10.31-4.3,14.1 c-1.86,2.47-4.24,4.48-7.1,6.08c-2.75,1.54-5.96,2.71-9.57,3.55L79,93.95H19.15l-0.38-0.04c-2.19-0.28-4.17-0.79-5.97-1.54 c-1.86-0.77-3.51-1.76-4.96-2.97c-1.37-1.15-2.58-2.45-3.6-3.87C1.51,81.77,0.03,77.16,0,72.58c-0.03-4.63,1.41-9.25,4.52-12.98 c1.01-1.21,2.19-2.32,3.55-3.31c1.58-1.15,3.39-2.12,5.43-2.91c1.41-0.55,2.91-1.01,4.51-1.37c1.8-7.15,5.65-12.67,10.58-16.5 c4.62-3.58,10.18-5.66,15.9-6.22C49,28.86,53.62,29.38,57.96,30.86L57.96,30.86z"/></g></svg>