<?xml version="1.0" encoding="utf-8"?><svg version="1.1" id="Layer_1" xmlns="http://www.w3.org/2000/svg" xmlns:xlink="http://www.w3.org/1999/xlink" x="0px" y="0px" viewBox="0 0 122.88 122.83" style="enable-background:new 0 0 122.88 122.83" xml:space="preserve"><g><path d="M19.99,90.56c1.69,0.21,2.88,1.75,2.67,3.44c-0.21,1.69-1.75,2.88-3.44,2.67c-2.24-0.28-4.27-0.81-6.11-1.57 c-1.89-0.78-3.57-1.8-5.07-3.05H8.03c-1.41-1.17-2.64-2.51-3.69-3.96C1.55,84.22,0.04,79.51,0,74.82 c-0.03-4.75,1.44-9.47,4.63-13.29c1.03-1.24,2.25-2.38,3.64-3.39c1.62-1.17,3.48-2.17,5.57-2.98c1.44-0.56,2.98-1.03,4.62-1.41 c1.84-7.33,5.78-12.97,10.84-16.9c4.73-3.67,10.42-5.8,16.29-6.37c3.6-0.35,7.28-0.1,10.83,0.75c0.34-7.18,2.93-13.78,7.07-19.11 C68.02,6.27,74.46,1.95,81.88,0.07c1.24-0.31,2.5,0.44,2.81,1.68c0.2,0.79-0.04,1.59-0.55,2.14c-1.76,2.17-3.17,4.65-4.13,7.36 c-0.94,2.64-1.46,5.49-1.46,8.46c0,6.95,2.82,13.24,7.37,17.79c4.55,4.55,10.84,7.37,17.79,7.37c2.86,0,5.61-0.48,8.17-1.35 c2.67-0.92,5.12-2.26,7.28-3.94c1-0.78,2.46-0.61,3.24,0.4c0.47,0.6,0.59,1.36,0.4,2.04l0,0c-1.69,6.03-5.01,11.39-9.46,15.55 c-3.21,3.01-7,5.39-11.19,6.97c0.63,2.5,0.94,5.15,0.91,7.77c-0.06,5.29-1.49,10.56-4.4,14.44c-1.9,2.53-4.34,4.59-7.27,6.23 c-2.82,1.58-6.11,2.78-9.8,3.63c-1.66,0.38-3.31-0.66-3.69-2.32c-0.38-1.66,0.66-3.31,2.32-3.69c3.11-0.72,5.85-1.71,8.16-3.01 c2.21-1.23,4.01-2.74,5.36-4.54c2.1-2.79,3.13-6.74,3.17-10.79c0.02-2.15-0.23-4.3-0.74-6.3l-1.3-3.62 c-0.29-0.61-0.61-1.17-0.97-1.71c-0.58-0.89-1.21-1.7-1.89-2.43c-3.03-3.26-6.87-4.69-10.86-4.71c-2.9-0.02-5.89,0.68-8.73,1.93 c-0.63,0.31-1.26,0.65-1.89,1.02c-1.89,1.11-3.75,2.46-5.65,4.01l-4.06-4.65c1.4-1.3,2.92-2.48,4.53-3.53 c1.29-0.84,2.62-1.58,4-2.22c0.55-0.28,1.11-0.54,1.68-0.78c-2.68-4.74-6.53-8.14-10.89-10.23c-4.36-2.09-9.24-2.9-14-2.44 c-4.72,0.46-9.31,2.17-13.1,5.11c-4.38,3.4-7.72,8.48-9,15.22l-0.4,2.11l-2.1,0.37c-2.05,0.36-3.89,0.85-5.5,1.48 c-1.56,0.61-2.95,1.35-4.17,2.23c-0.97,0.7-1.81,1.49-2.53,2.35c-2.21,2.65-3.23,5.96-3.21,9.31c0.02,3.4,1.13,6.84,3.18,9.67 c0.76,1.05,1.65,2.01,2.65,2.85l0,0.01c1.01,0.84,2.16,1.54,3.47,2.07C16.8,89.95,18.32,90.35,19.99,90.56L19.99,90.56z M46.66,97.24c1.84,8.53,7.36,12.79,7.36,17.06c0,4.27-1.84,8.53-7.36,8.53c-5.52,0-7.35-4.26-7.35-8.53 C39.3,110.04,44.82,105.77,46.66,97.24L46.66,97.24z M38.36,73.81c1.32,6.14,5.29,9.2,5.29,12.27c0,3.07-1.32,6.14-5.29,6.14 c-3.97,0-5.29-3.07-5.29-6.14C33.07,83.01,37.04,79.95,38.36,73.81L38.36,73.81z M62.98,74.71c1.84,9.26,7.36,13.89,7.36,18.52 c0,4.63-1.84,9.26-7.36,9.26c-5.52,0-7.35-4.63-7.35-9.26C55.63,88.6,61.15,83.97,62.98,74.71L62.98,74.71z M61,32.7 c0.61,0.25,1.21,0.51,1.81,0.8c5.89,2.83,11.02,7.53,14.35,14.15c1.34-0.21,2.68-0.31,4.02-0.31c5.63,0.04,11.07,2.05,15.35,6.67 c0.9,0.97,1.75,2.05,2.54,3.27c0.59,0.9,1.11,1.87,1.57,2.89c3.57-1.36,6.8-3.41,9.54-5.97c2.25-2.1,4.16-4.56,5.65-7.28 c-0.8,0.36-1.62,0.68-2.46,0.97c-3.04,1.04-6.29,1.61-9.67,1.61c-8.23,0-15.67-3.33-21.07-8.73c-5.39-5.39-8.73-12.84-8.73-21.07 c0-3.51,0.61-6.89,1.73-10.02c0.34-0.95,0.73-1.88,1.16-2.78c-3.78,1.96-7.07,4.71-9.66,8.05C63.32,19.87,61.04,26.02,61,32.7 L61,32.7z"/></g></svg>