<?xml version="1.0" encoding="utf-8"?><svg version="1.1" id="Layer_1" xmlns="http://www.w3.org/2000/svg" xmlns:xlink="http://www.w3.org/1999/xlink" x="0px" y="0px" viewBox="0 0 122.87 98.96" style="enable-background:new 0 0 122.87 98.96" xml:space="preserve"><g><path d="M59.41,28.49c0.57-6.34,2.97-12.15,6.66-16.9c4.35-5.6,10.51-9.73,17.6-11.52c1.19-0.3,2.39,0.42,2.68,1.61 c0.19,0.76-0.04,1.52-0.53,2.05c-1.68,2.07-3.03,4.45-3.95,7.04c-0.9,2.53-1.39,5.25-1.39,8.09c0,6.64,2.69,12.65,7.04,17.01 c4.35,4.35,10.36,7.04,17.01,7.04c2.74,0,5.37-0.46,7.81-1.29c2.55-0.88,4.9-2.16,6.96-3.77c0.96-0.75,2.35-0.58,3.1,0.38 c0.45,0.57,0.57,1.3,0.39,1.95l0,0c-1.62,5.77-4.79,10.89-9.04,14.87c-4.02,3.77-9.01,6.52-14.55,7.85 c0.12,1.11,0.17,2.24,0.16,3.36c-0.06,5.06-1.42,10.1-4.21,13.8c-1.82,2.42-4.15,4.39-6.95,5.95c-2.7,1.51-5.84,2.65-9.37,3.47 l-0.66,0.08H57.13c-1.63,0-2.95-1.32-2.95-2.95s1.32-2.95,2.95-2.95h20.73c2.83-0.68,5.33-1.6,7.45-2.79 c2.11-1.18,3.83-2.62,5.13-4.34c2.01-2.67,2.99-6.44,3.03-10.32c0.04-4.06-0.94-8.14-2.88-11.12c-0.56-0.85-1.16-1.63-1.8-2.32 c-2.89-3.12-6.57-4.48-10.38-4.5c-2.77-0.02-5.63,0.65-8.35,1.85c-0.6,0.3-1.21,0.62-1.8,0.97c-1.81,1.06-3.59,2.35-5.4,3.83 l-3.88-4.44c1.34-1.24,2.79-2.38,4.33-3.38c1.23-0.8,2.51-1.51,3.83-2.13c0.53-0.26,1.06-0.51,1.6-0.74 c-2.56-4.53-6.24-7.78-10.41-9.78c-4.17-2-8.84-2.77-13.38-2.33c-4.52,0.44-8.9,2.07-12.52,4.89c-4.19,3.25-7.38,8.11-8.6,14.55 c-0.3,1.6-1.84,2.65-3.44,2.35c-1.6-0.3-2.65-1.84-2.35-3.44c1.51-7.97,5.52-14.03,10.79-18.12c4.52-3.51,9.97-5.55,15.57-6.09 C49.45,25.77,54.65,26.51,59.41,28.49L59.41,28.49z M2.95,71.7C1.33,71.71,0.01,70.4,0,68.77c-0.01-1.63,1.31-2.95,2.93-2.95 l34.26-0.17c0.05,0,0.09,0,0.14,0v0c4.97,0.22,7.77-1.1,8.89-2.89c0.47-0.74,0.64-1.6,0.54-2.44c-0.1-0.88-0.5-1.75-1.16-2.49 c-1.43-1.61-4.08-2.51-7.64-1.55c-1.57,0.42-3.19-0.51-3.61-2.09c-0.42-1.57,0.51-3.19,2.09-3.61c6.03-1.62,10.8,0.22,13.57,3.33 c1.47,1.65,2.37,3.66,2.61,5.74c0.25,2.12-0.19,4.3-1.41,6.25c-2.15,3.41-6.7,5.96-14.12,5.64L2.95,71.7L2.95,71.7z M10.81,83.15 c-1.63,0-2.95-1.32-2.95-2.95c0-1.63,1.32-2.95,2.95-2.95H26.3l0.03,0c7.21-0.4,11.69,2.08,13.85,5.45 c1.26,1.96,1.72,4.19,1.48,6.37c-0.23,2.12-1.13,4.19-2.61,5.89c-2.76,3.16-7.49,5.04-13.51,3.43c-1.57-0.42-2.51-2.04-2.09-3.61 c0.42-1.57,2.04-2.51,3.61-2.09c3.52,0.94,6.13,0.02,7.55-1.6c0.67-0.77,1.08-1.69,1.18-2.63c0.1-0.89-0.08-1.78-0.58-2.56 c-1.12-1.75-3.82-3.01-8.55-2.75c-0.12,0.02-0.24,0.02-0.37,0.02H10.81L10.81,83.15z M98.41,58.54c4.68-1.17,8.9-3.51,12.31-6.71 c2.15-2.01,3.98-4.36,5.4-6.96c-0.77,0.34-1.55,0.65-2.35,0.93c-2.9,1-6.01,1.54-9.25,1.54c-7.86,0-14.98-3.19-20.14-8.34 c-5.15-5.15-8.34-12.27-8.34-20.14c0-3.36,0.58-6.58,1.65-9.58c0.32-0.91,0.69-1.79,1.11-2.66c-3.61,1.87-6.76,4.51-9.24,7.69 c-3.54,4.55-5.7,10.22-5.85,16.4c4.43,2.75,8.24,6.73,10.87,11.97c1.28-0.2,2.56-0.3,3.84-0.29c5.38,0.04,10.58,1.96,14.67,6.37 c0.86,0.92,1.67,1.96,2.43,3.13C96.8,53.83,97.77,56.11,98.41,58.54L98.41,58.54z"/></g></svg>