<?xml version="1.0" encoding="utf-8"?><svg version="1.1" id="Layer_1" xmlns="http://www.w3.org/2000/svg" xmlns:xlink="http://www.w3.org/1999/xlink" x="0px" y="0px" viewBox="0 0 122.88 119.67" style="enable-background:new 0 0 122.88 119.67" xml:space="preserve"><style type="text/css">.st0{fill-rule:evenodd;clip-rule:evenodd;}</style><g><path class="st0" d="M51.44,71.99h19.48l-6.79,13.14l11.56,0.2l-28.16,34.33l5.42-22.58h-9.11L51.44,71.99L51.44,71.99z M68.15,24.15C68.71,18.85,70.76,14,73.86,10c3.76-4.83,9.07-8.4,15.19-9.95c1.02-0.26,2.06,0.37,2.32,1.39 c0.16,0.65-0.03,1.31-0.46,1.77c-1.45,1.79-2.61,3.84-3.41,6.07c-0.78,2.18-1.2,4.53-1.2,6.98c0,5.73,2.32,10.92,6.08,14.68 c3.76,3.76,8.95,6.08,14.68,6.08c2.36,0,4.63-0.39,6.74-1.12c2.2-0.76,4.23-1.86,6.01-3.25c0.83-0.65,2.03-0.5,2.67,0.33 c0.39,0.5,0.49,1.12,0.33,1.69l0,0c-1.39,4.98-4.14,9.4-7.8,12.83c-2.95,2.76-6.5,4.9-10.44,6.18c0.3,0.79,0.61,1.61,0.93,2.45 c0.35,1.95,0.52,3.95,0.5,5.94c-0.06,5.44-1.53,10.86-4.53,14.85c-1.96,2.6-4.47,4.72-7.48,6.4c-2.9,1.63-6.28,2.86-10.08,3.74 c-1.71,0.39-3.41-0.68-3.8-2.38c-0.39-1.71,0.68-3.41,2.38-3.8c3.2-0.74,6.01-1.76,8.39-3.09c2.27-1.27,4.12-2.81,5.51-4.67 c2.16-2.87,3.22-6.93,3.26-11.1c0.05-4.37-1.02-8.76-3.09-11.96c-0.6-0.92-1.25-1.75-1.94-2.49c-3.11-3.35-7.07-4.82-11.17-4.85 c-2.98-0.02-6.06,0.7-8.98,1.99c-0.65,0.32-1.3,0.67-1.95,1.05c-1.94,1.14-3.86,2.53-5.81,4.12l-4.17-4.78 c1.44-1.34,3.01-2.56,4.66-3.63c1.32-0.86,2.7-1.62,4.11-2.28c0.57-0.29,1.15-0.55,1.73-0.81c-2.75-4.87-6.71-8.37-11.2-10.52 c-4.48-2.15-9.51-2.98-14.4-2.51c-4.86,0.47-9.57,2.23-13.47,5.26c-4.51,3.5-7.94,8.73-9.25,15.65l-0.41,2.17l-2.16,0.38 c-2.11,0.37-4,0.88-5.66,1.52c-1.61,0.62-3.03,1.39-4.28,2.29c-1,0.72-1.86,1.54-2.6,2.41c-2.27,2.72-3.32,6.13-3.3,9.57 c0.03,3.5,1.17,7.04,3.27,9.95c0.78,1.08,1.69,2.07,2.73,2.93l-0.01,0.01c1.04,0.87,2.22,1.58,3.56,2.13 c1.32,0.54,2.78,0.93,4.39,1.16h17.84c1.75,0,3.18,1.42,3.18,3.18c0,1.75-1.42,3.18-3.18,3.18H20.17l-0.4-0.04 c-2.3-0.29-4.39-0.84-6.29-1.62c-1.94-0.8-3.67-1.85-5.21-3.13H8.26c-1.45-1.21-2.71-2.58-3.8-4.07C1.59,74.33,0.04,69.48,0,64.65 c-0.04-4.88,1.48-9.74,4.76-13.67c1.06-1.27,2.31-2.45,3.74-3.48c1.67-1.21,3.57-2.23,5.72-3.06c1.49-0.58,3.07-1.06,4.75-1.45 c1.9-7.54,5.95-13.34,11.14-17.38c4.86-3.77,10.72-5.97,16.75-6.55C54.61,18.31,62.05,20.18,68.15,24.15L68.15,24.15z M103.17,50.13c3.48-1.1,6.62-2.96,9.22-5.4c1.85-1.74,3.43-3.76,4.67-6c-0.66,0.3-1.34,0.56-2.03,0.8 c-2.51,0.86-5.19,1.33-7.98,1.33c-6.79,0-12.93-2.75-17.38-7.2c-4.45-4.45-7.2-10.59-7.2-17.38c0-2.9,0.5-5.68,1.43-8.27 c0.28-0.78,0.6-1.55,0.96-2.3c-3.11,1.61-5.83,3.89-7.97,6.64c-3.13,4.03-5.01,9.08-5.06,14.58c2.64,2.32,4.91,5.09,6.72,8.27 c0.31,0.55,0.6,1.11,0.88,1.69c4.2-0.85,8.3-0.52,12.29,1.1C98.35,40.89,100.98,44.92,103.17,50.13L103.17,50.13z M49.23,92.74 l5.68-16.18h8.83l-4.59,12.32L66.08,89l-11.65,17.44l3.47-13.7H49.23L49.23,92.74z"/></g></svg>